<?xml version="1.0" encoding="utf-8"?>
<!-- Generator: Adobe Illustrator 19.2.1, SVG Export Plug-In . SVG Version: 6.00 Build 0)  -->
<svg version="1.1" id="Layer_1" xmlns="http://www.w3.org/2000/svg" xmlns:xlink="http://www.w3.org/1999/xlink" x="0px" y="0px"
	 viewBox="0 0 15 15" style="enable-background:new 0 0 15 15;" xml:space="preserve">
<style type="text/css">
	.st0{fill:#ffffff;}
	.st1{fill: #252525;}
</style>
<g>
	<path class="st0" d="M13.8,0.2H1.2c-0.6,0-1.1,0.5-1.1,1.1v12.6c0,0.6,0.5,1.1,1.1,1.1h12.5c0.6,0,1.1-0.5,1.1-1.1V1.2
		C14.8,0.6,14.4,0.2,13.8,0.2L13.8,0.2z"/>
	<g>
		<rect x="2.9" y="6" class="st1" width="2" height="5.9"/>
		<path class="st1" d="M3.9,5.2L3.9,5.2c-0.7,0-1.1-0.5-1.1-1c0-0.6,0.4-1,1.1-1c0.7,0,1.1,0.4,1.1,1C5,4.7,4.6,5.2,3.9,5.2L3.9,5.2
			z"/>
		<path class="st1" d="M12,11.9h-2V8.8c0-0.8-0.3-1.3-1-1.3c-0.5,0-0.9,0.4-1,0.7C8,8.3,8,8.4,8,8.6v3.3H6c0,0,0-5.4,0-5.9h2v0.8
			c0.3-0.4,0.7-1,1.8-1c1.3,0,2.3,0.8,2.3,2.7V11.9z"/>
	</g>
</g>
</svg>
