<?xml version="1.0" encoding="utf-8"?>
<!-- Generator: Adobe Illustrator 21.0.1, SVG Export Plug-In . SVG Version: 6.00 Build 0)  -->
<svg version="1.1" id="Layer_1" xmlns="http://www.w3.org/2000/svg" xmlns:xlink="http://www.w3.org/1999/xlink" x="0px" y="0px"
	 viewBox="0 0 12 10" style="enable-background:new 0 0 12 10;" xml:space="preserve">
<path d="M11.9,1.2c-0.4,0.2-0.9,0.3-1.4,0.4c0.5-0.3,0.9-0.8,1.1-1.3c-0.5,0.3-1,0.5-1.5,0.6C9.6,0.4,9,0.1,8.3,0.1
	c-1.3,0-2.4,1.1-2.4,2.4c0,0.2,0,0.4,0.1,0.5C3.9,2.9,2.2,2,1,0.5C0.8,0.9,0.7,1.3,0.7,1.7c0,0.8,0.4,1.6,1.1,2
	C1.3,3.7,1,3.6,0.6,3.4c0,0,0,0,0,0c0,1.2,0.8,2.1,1.9,2.3C2.4,5.9,2.2,5.9,1.9,5.9c-0.2,0-0.3,0-0.5,0c0.3,1,1.2,1.6,2.2,1.7
	c-0.8,0.6-1.9,1-3,1c-0.2,0-0.4,0-0.6,0c1.1,0.7,2.3,1.1,3.7,1.1c4.4,0,6.8-3.7,6.8-6.8c0-0.1,0-0.2,0-0.3
	C11.1,2.1,11.5,1.7,11.9,1.2z"/>
</svg>
