<?xml version="1.0" encoding="utf-8"?>
<!-- Generator: Adobe Illustrator 19.2.1, SVG Export Plug-In . SVG Version: 6.00 Build 0)  -->
<svg version="1.1" id="Layer_1" xmlns="http://www.w3.org/2000/svg" xmlns:xlink="http://www.w3.org/1999/xlink" x="0px" y="0px"
	 viewBox="0 0 15 15" style="enable-background:new 0 0 15 15;" xml:space="preserve">
<style type="text/css">
	.st0{fill:#ffffff;}
	.st1{fill: #252525;}
</style>
<g>
	<path class="st0" d="M13.8,0.2H1.2c-0.6,0-1.1,0.5-1.1,1.1v12.6c0,0.6,0.5,1.1,1.1,1.1h12.5c0.6,0,1.1-0.5,1.1-1.1V1.3
		C14.8,0.7,14.4,0.2,13.8,0.2z"/>
	<path class="st1" d="M13.1,4.6c-0.4,0.2-0.8,0.3-1.2,0.3c0.4-0.3,0.8-0.7,1-1.2c-0.4,0.2-0.9,0.4-1.4,0.5c-0.4-0.4-1-0.7-1.6-0.7
		c-1.2,0-2.2,1-2.2,2.2c0,0.2,0,0.3,0.1,0.5C6,6.1,4.4,5.2,3.3,3.9C3.1,4.3,3,4.6,3,5c0,0.8,0.4,1.4,1,1.8c-0.4,0-0.7-0.1-1-0.3
		c0,0,0,0,0,0c0,1.1,0.7,1.9,1.7,2.1c-0.2,0-0.4,0.1-0.6,0.1c-0.1,0-0.3,0-0.4,0c0.3,0.9,1.1,1.5,2,1.5c-0.7,0.6-1.7,0.9-2.7,0.9
		c-0.2,0-0.3,0-0.5,0c1,0.6,2.1,1,3.3,1c4,0,6.2-3.3,6.2-6.2c0-0.1,0-0.2,0-0.3C12.5,5.4,12.8,5,13.1,4.6z"/>
</g>
</svg>
