<?xml version="1.0" encoding="utf-8"?>
<!-- Generator: Adobe Illustrator 19.2.1, SVG Export Plug-In . SVG Version: 6.00 Build 0)  -->
<svg version="1.1" id="Layer_1" xmlns="http://www.w3.org/2000/svg" xmlns:xlink="http://www.w3.org/1999/xlink" x="0px" y="0px"
	 viewBox="0 0 15 15" style="enable-background:new 0 0 15 15;" xml:space="preserve">
<style type="text/css">
	.st0{fill:#ffffff;}
	.st1{fill: #252525;}
</style>
<g>
	<path class="st0" d="M13.8,14.8H1.2c-0.6,0-1.1-0.5-1.1-1.1V1.2c0-0.6,0.5-1.1,1.1-1.1h12.5c0.6,0,1.1,0.5,1.1,1.1v12.5
		C14.8,14.4,14.4,14.8,13.8,14.8z"/>
	<path class="st1" d="M7.8,14.8V9.4H5.9V7.2h1.8V5.4c0-1.9,1.3-2.9,2.9-2.9c0.8,0,1.4,0.1,1.8,0.1v2l-1.1,0c-0.9,0-1.1,0.4-1.1,1.1
		v1.5h2l-0.3,2.2h-1.8v5.5H7.8z"/>
</g>
</svg>
